<mxfile host="app.diagrams.net" modified="2023-05-31T07:06:37.897Z" agent="Mozilla/5.0 (Windows NT 10.0; Win64; x64) AppleWebKit/537.36 (KHTML, like Gecko) Chrome/113.0.0.0 Safari/537.36" etag="jL_CnB6lA4S9QGr3VhWi" version="21.3.6" type="github">
  <diagram name="Page-1" id="n2liNgtz6i9wZgeHhrPj">
    <mxGraphModel dx="1467" dy="807" grid="1" gridSize="10" guides="1" tooltips="1" connect="1" arrows="1" fold="1" page="1" pageScale="1" pageWidth="850" pageHeight="1100" math="0" shadow="0">
      <root>
        <mxCell id="0" />
        <mxCell id="1" parent="0" />
        <mxCell id="R2Huf-4r1oj2iXr34D1d-58" style="edgeStyle=orthogonalEdgeStyle;rounded=0;orthogonalLoop=1;jettySize=auto;html=1;entryX=0.572;entryY=1.023;entryDx=0;entryDy=0;entryPerimeter=0;" edge="1" parent="1" source="R2Huf-4r1oj2iXr34D1d-1" target="R2Huf-4r1oj2iXr34D1d-2">
          <mxGeometry relative="1" as="geometry" />
        </mxCell>
        <mxCell id="R2Huf-4r1oj2iXr34D1d-1" value="" style="html=1;verticalLabelPosition=bottom;labelBackgroundColor=#ffffff;verticalAlign=top;shadow=0;dashed=0;strokeWidth=6;shape=mxgraph.ios7.misc.iphone;perimeterSpacing=6;rotation=0;" vertex="1" parent="1">
          <mxGeometry x="30" y="370" width="130" height="240" as="geometry" />
        </mxCell>
        <mxCell id="R2Huf-4r1oj2iXr34D1d-55" style="edgeStyle=orthogonalEdgeStyle;rounded=0;orthogonalLoop=1;jettySize=auto;html=1;exitX=0.5;exitY=0;exitDx=0;exitDy=0;exitPerimeter=0;entryX=0.116;entryY=0.547;entryDx=0;entryDy=0;entryPerimeter=0;" edge="1" parent="1" source="R2Huf-4r1oj2iXr34D1d-2" target="R2Huf-4r1oj2iXr34D1d-5">
          <mxGeometry relative="1" as="geometry" />
        </mxCell>
        <mxCell id="R2Huf-4r1oj2iXr34D1d-56" style="edgeStyle=orthogonalEdgeStyle;rounded=0;orthogonalLoop=1;jettySize=auto;html=1;" edge="1" parent="1" source="R2Huf-4r1oj2iXr34D1d-2" target="R2Huf-4r1oj2iXr34D1d-6">
          <mxGeometry relative="1" as="geometry" />
        </mxCell>
        <mxCell id="R2Huf-4r1oj2iXr34D1d-57" style="edgeStyle=orthogonalEdgeStyle;rounded=0;orthogonalLoop=1;jettySize=auto;html=1;" edge="1" parent="1" source="R2Huf-4r1oj2iXr34D1d-2" target="R2Huf-4r1oj2iXr34D1d-7">
          <mxGeometry relative="1" as="geometry" />
        </mxCell>
        <mxCell id="R2Huf-4r1oj2iXr34D1d-2" value="Load Balancer" style="verticalLabelPosition=bottom;verticalAlign=top;html=1;shape=mxgraph.basic.patternFillRect;fillStyle=grid;step=5;fillStrokeWidth=0.2;fillStrokeColor=#dddddd;rotation=90;fontStyle=1;whiteSpace=wrap;" vertex="1" parent="1">
          <mxGeometry x="80" y="450" width="285" height="40" as="geometry" />
        </mxCell>
        <mxCell id="R2Huf-4r1oj2iXr34D1d-52" style="edgeStyle=orthogonalEdgeStyle;rounded=0;orthogonalLoop=1;jettySize=auto;html=1;" edge="1" parent="1" source="R2Huf-4r1oj2iXr34D1d-5" target="R2Huf-4r1oj2iXr34D1d-9">
          <mxGeometry relative="1" as="geometry" />
        </mxCell>
        <mxCell id="R2Huf-4r1oj2iXr34D1d-5" value="Backend Server" style="whiteSpace=wrap;html=1;aspect=fixed;strokeWidth=4;rounded=1;glass=0;shadow=0;perimeterSpacing=10;" vertex="1" parent="1">
          <mxGeometry x="320" y="330" width="80" height="80" as="geometry" />
        </mxCell>
        <mxCell id="R2Huf-4r1oj2iXr34D1d-53" style="edgeStyle=orthogonalEdgeStyle;rounded=0;orthogonalLoop=1;jettySize=auto;html=1;entryX=0;entryY=0.25;entryDx=0;entryDy=0;" edge="1" parent="1" source="R2Huf-4r1oj2iXr34D1d-6" target="R2Huf-4r1oj2iXr34D1d-12">
          <mxGeometry relative="1" as="geometry" />
        </mxCell>
        <mxCell id="R2Huf-4r1oj2iXr34D1d-60" style="edgeStyle=orthogonalEdgeStyle;rounded=0;orthogonalLoop=1;jettySize=auto;html=1;entryX=0;entryY=0.75;entryDx=0;entryDy=0;" edge="1" parent="1" source="R2Huf-4r1oj2iXr34D1d-6" target="R2Huf-4r1oj2iXr34D1d-62">
          <mxGeometry relative="1" as="geometry">
            <mxPoint x="260" y="1030" as="targetPoint" />
            <Array as="points">
              <mxPoint x="280" y="470" />
              <mxPoint x="280" y="730" />
              <mxPoint x="210" y="730" />
              <mxPoint x="210" y="1040" />
            </Array>
          </mxGeometry>
        </mxCell>
        <mxCell id="R2Huf-4r1oj2iXr34D1d-68" style="edgeStyle=orthogonalEdgeStyle;rounded=0;orthogonalLoop=1;jettySize=auto;html=1;exitX=0;exitY=0.5;exitDx=0;exitDy=0;entryX=0;entryY=0.5;entryDx=0;entryDy=0;" edge="1" parent="1" source="R2Huf-4r1oj2iXr34D1d-6" target="R2Huf-4r1oj2iXr34D1d-67">
          <mxGeometry relative="1" as="geometry" />
        </mxCell>
        <mxCell id="R2Huf-4r1oj2iXr34D1d-6" value="Backend Server" style="whiteSpace=wrap;html=1;aspect=fixed;strokeWidth=4;rounded=1;glass=0;shadow=0;perimeterSpacing=10;" vertex="1" parent="1">
          <mxGeometry x="320" y="430" width="80" height="80" as="geometry" />
        </mxCell>
        <mxCell id="R2Huf-4r1oj2iXr34D1d-54" style="edgeStyle=orthogonalEdgeStyle;rounded=0;orthogonalLoop=1;jettySize=auto;html=1;" edge="1" parent="1" source="R2Huf-4r1oj2iXr34D1d-7" target="R2Huf-4r1oj2iXr34D1d-13">
          <mxGeometry relative="1" as="geometry" />
        </mxCell>
        <mxCell id="R2Huf-4r1oj2iXr34D1d-7" value="Backend Server" style="whiteSpace=wrap;html=1;aspect=fixed;labelBackgroundColor=default;labelBorderColor=default;strokeWidth=4;rounded=1;glass=0;shadow=0;perimeterSpacing=10;" vertex="1" parent="1">
          <mxGeometry x="320" y="530" width="80" height="80" as="geometry" />
        </mxCell>
        <mxCell id="R2Huf-4r1oj2iXr34D1d-8" value="&lt;h1&gt;&lt;b&gt;HIGH&amp;nbsp; -&amp;nbsp; LEVEL DESIGN&lt;/b&gt;&lt;/h1&gt;" style="text;html=1;align=center;verticalAlign=middle;resizable=0;points=[];autosize=1;strokeColor=none;fillColor=none;" vertex="1" parent="1">
          <mxGeometry x="110" y="40" width="290" height="70" as="geometry" />
        </mxCell>
        <mxCell id="R2Huf-4r1oj2iXr34D1d-22" style="edgeStyle=orthogonalEdgeStyle;rounded=0;orthogonalLoop=1;jettySize=auto;html=1;entryX=0.5;entryY=1;entryDx=0;entryDy=0;entryPerimeter=0;" edge="1" parent="1" source="R2Huf-4r1oj2iXr34D1d-9" target="R2Huf-4r1oj2iXr34D1d-19">
          <mxGeometry relative="1" as="geometry" />
        </mxCell>
        <mxCell id="R2Huf-4r1oj2iXr34D1d-9" value="Upload" style="whiteSpace=wrap;html=1;aspect=fixed;rounded=1;strokeWidth=3;" vertex="1" parent="1">
          <mxGeometry x="500" y="320" width="80" height="80" as="geometry" />
        </mxCell>
        <mxCell id="R2Huf-4r1oj2iXr34D1d-42" style="edgeStyle=orthogonalEdgeStyle;rounded=0;orthogonalLoop=1;jettySize=auto;html=1;exitX=1;exitY=0.5;exitDx=0;exitDy=0;entryX=0;entryY=0.25;entryDx=0;entryDy=0;" edge="1" parent="1" source="R2Huf-4r1oj2iXr34D1d-12" target="R2Huf-4r1oj2iXr34D1d-32">
          <mxGeometry relative="1" as="geometry" />
        </mxCell>
        <mxCell id="R2Huf-4r1oj2iXr34D1d-12" value="Search" style="whiteSpace=wrap;html=1;aspect=fixed;rounded=1;strokeWidth=5;" vertex="1" parent="1">
          <mxGeometry x="500" y="440" width="80" height="80" as="geometry" />
        </mxCell>
        <mxCell id="R2Huf-4r1oj2iXr34D1d-45" style="edgeStyle=orthogonalEdgeStyle;rounded=0;orthogonalLoop=1;jettySize=auto;html=1;exitX=0.5;exitY=1;exitDx=0;exitDy=0;" edge="1" parent="1" source="R2Huf-4r1oj2iXr34D1d-13" target="R2Huf-4r1oj2iXr34D1d-20">
          <mxGeometry relative="1" as="geometry" />
        </mxCell>
        <mxCell id="R2Huf-4r1oj2iXr34D1d-13" value="Stream" style="whiteSpace=wrap;html=1;aspect=fixed;" vertex="1" parent="1">
          <mxGeometry x="500" y="550" width="80" height="80" as="geometry" />
        </mxCell>
        <mxCell id="R2Huf-4r1oj2iXr34D1d-35" style="edgeStyle=orthogonalEdgeStyle;rounded=0;orthogonalLoop=1;jettySize=auto;html=1;exitX=1;exitY=0.5;exitDx=0;exitDy=0;exitPerimeter=0;" edge="1" parent="1" source="R2Huf-4r1oj2iXr34D1d-18">
          <mxGeometry relative="1" as="geometry">
            <mxPoint x="1571" y="360" as="targetPoint" />
          </mxGeometry>
        </mxCell>
        <mxCell id="R2Huf-4r1oj2iXr34D1d-18" value="MetaData" style="shape=cylinder3;whiteSpace=wrap;html=1;boundedLbl=1;backgroundOutline=1;size=15;rotation=0;strokeWidth=3;shadow=1;fillColor=#b0e3e6;strokeColor=#0e8088;" vertex="1" parent="1">
          <mxGeometry x="550" y="40" width="111.87" height="126.25" as="geometry" />
        </mxCell>
        <mxCell id="R2Huf-4r1oj2iXr34D1d-34" style="edgeStyle=orthogonalEdgeStyle;rounded=0;orthogonalLoop=1;jettySize=auto;html=1;exitX=0;exitY=0.5;exitDx=0;exitDy=0;exitPerimeter=0;" edge="1" parent="1" source="R2Huf-4r1oj2iXr34D1d-19" target="R2Huf-4r1oj2iXr34D1d-18">
          <mxGeometry relative="1" as="geometry" />
        </mxCell>
        <mxCell id="R2Huf-4r1oj2iXr34D1d-41" style="edgeStyle=orthogonalEdgeStyle;rounded=0;orthogonalLoop=1;jettySize=auto;html=1;exitX=0.5;exitY=1;exitDx=0;exitDy=0;exitPerimeter=0;entryX=0;entryY=0;entryDx=0;entryDy=15;entryPerimeter=0;" edge="1" parent="1" source="R2Huf-4r1oj2iXr34D1d-19" target="R2Huf-4r1oj2iXr34D1d-23">
          <mxGeometry relative="1" as="geometry">
            <Array as="points">
              <mxPoint x="760" y="470" />
              <mxPoint x="920" y="470" />
              <mxPoint x="920" y="450" />
            </Array>
          </mxGeometry>
        </mxCell>
        <mxCell id="R2Huf-4r1oj2iXr34D1d-19" value="Distributed Storage" style="shape=cylinder3;whiteSpace=wrap;html=1;boundedLbl=1;backgroundOutline=1;size=15;rotation=0;strokeWidth=3;shadow=1;fillColor=#b0e3e6;strokeColor=#0e8088;" vertex="1" parent="1">
          <mxGeometry x="720" y="220" width="80" height="90" as="geometry" />
        </mxCell>
        <mxCell id="R2Huf-4r1oj2iXr34D1d-46" style="edgeStyle=orthogonalEdgeStyle;rounded=0;orthogonalLoop=1;jettySize=auto;html=1;entryX=0.5;entryY=0;entryDx=0;entryDy=0;" edge="1" parent="1" source="R2Huf-4r1oj2iXr34D1d-20" target="R2Huf-4r1oj2iXr34D1d-28">
          <mxGeometry relative="1" as="geometry" />
        </mxCell>
        <mxCell id="R2Huf-4r1oj2iXr34D1d-47" style="edgeStyle=orthogonalEdgeStyle;rounded=0;orthogonalLoop=1;jettySize=auto;html=1;exitX=0;exitY=0;exitDx=0;exitDy=52.5;exitPerimeter=0;entryX=0.5;entryY=0;entryDx=0;entryDy=0;" edge="1" parent="1" source="R2Huf-4r1oj2iXr34D1d-20" target="R2Huf-4r1oj2iXr34D1d-29">
          <mxGeometry relative="1" as="geometry" />
        </mxCell>
        <mxCell id="R2Huf-4r1oj2iXr34D1d-48" style="edgeStyle=orthogonalEdgeStyle;rounded=0;orthogonalLoop=1;jettySize=auto;html=1;exitX=0.5;exitY=1;exitDx=0;exitDy=0;exitPerimeter=0;entryX=0.75;entryY=0;entryDx=0;entryDy=0;" edge="1" parent="1" source="R2Huf-4r1oj2iXr34D1d-20" target="R2Huf-4r1oj2iXr34D1d-30">
          <mxGeometry relative="1" as="geometry" />
        </mxCell>
        <mxCell id="R2Huf-4r1oj2iXr34D1d-20" value="queue" style="shape=cylinder3;whiteSpace=wrap;html=1;boundedLbl=1;backgroundOutline=1;size=15;rotation=-90;" vertex="1" parent="1">
          <mxGeometry x="510" y="680" width="60" height="80" as="geometry" />
        </mxCell>
        <mxCell id="R2Huf-4r1oj2iXr34D1d-40" style="edgeStyle=orthogonalEdgeStyle;rounded=0;orthogonalLoop=1;jettySize=auto;html=1;exitX=1;exitY=0.5;exitDx=0;exitDy=0;exitPerimeter=0;entryX=0;entryY=0.5;entryDx=0;entryDy=0;" edge="1" parent="1" source="R2Huf-4r1oj2iXr34D1d-23" target="R2Huf-4r1oj2iXr34D1d-24">
          <mxGeometry relative="1" as="geometry" />
        </mxCell>
        <mxCell id="R2Huf-4r1oj2iXr34D1d-23" value="Distributed Queue" style="shape=cylinder3;whiteSpace=wrap;html=1;boundedLbl=1;backgroundOutline=1;size=15;rotation=-90;" vertex="1" parent="1">
          <mxGeometry x="920" y="380" width="60" height="80" as="geometry" />
        </mxCell>
        <mxCell id="R2Huf-4r1oj2iXr34D1d-37" style="edgeStyle=orthogonalEdgeStyle;rounded=0;orthogonalLoop=1;jettySize=auto;html=1;exitX=1;exitY=0.5;exitDx=0;exitDy=0;entryX=0;entryY=0.5;entryDx=0;entryDy=0;" edge="1" parent="1" source="R2Huf-4r1oj2iXr34D1d-24" target="R2Huf-4r1oj2iXr34D1d-25">
          <mxGeometry relative="1" as="geometry" />
        </mxCell>
        <mxCell id="R2Huf-4r1oj2iXr34D1d-39" style="edgeStyle=orthogonalEdgeStyle;rounded=0;orthogonalLoop=1;jettySize=auto;html=1;exitX=0.5;exitY=1;exitDx=0;exitDy=0;entryX=0;entryY=0.5;entryDx=0;entryDy=0;" edge="1" parent="1" source="R2Huf-4r1oj2iXr34D1d-24" target="R2Huf-4r1oj2iXr34D1d-26">
          <mxGeometry relative="1" as="geometry" />
        </mxCell>
        <mxCell id="R2Huf-4r1oj2iXr34D1d-24" value="File Size regulator&lt;br&gt;" style="rhombus;whiteSpace=wrap;html=1;shadow=1;strokeWidth=4;fillColor=#f5f5f5;strokeColor=#666666;gradientColor=#b3b3b3;" vertex="1" parent="1">
          <mxGeometry x="1000" y="150" width="120" height="120" as="geometry" />
        </mxCell>
        <mxCell id="R2Huf-4r1oj2iXr34D1d-38" style="edgeStyle=orthogonalEdgeStyle;rounded=0;orthogonalLoop=1;jettySize=auto;html=1;exitX=0.5;exitY=1;exitDx=0;exitDy=0;" edge="1" parent="1" source="R2Huf-4r1oj2iXr34D1d-25" target="R2Huf-4r1oj2iXr34D1d-26">
          <mxGeometry relative="1" as="geometry" />
        </mxCell>
        <mxCell id="R2Huf-4r1oj2iXr34D1d-25" value="Compressor&lt;br&gt;H264 Encoder" style="whiteSpace=wrap;html=1;aspect=fixed;rounded=1;strokeWidth=3;" vertex="1" parent="1">
          <mxGeometry x="1260" y="140" width="120" height="120" as="geometry" />
        </mxCell>
        <mxCell id="R2Huf-4r1oj2iXr34D1d-36" style="edgeStyle=orthogonalEdgeStyle;rounded=0;orthogonalLoop=1;jettySize=auto;html=1;" edge="1" parent="1" source="R2Huf-4r1oj2iXr34D1d-26" target="R2Huf-4r1oj2iXr34D1d-27">
          <mxGeometry relative="1" as="geometry" />
        </mxCell>
        <mxCell id="R2Huf-4r1oj2iXr34D1d-26" value="Media Convertor" style="whiteSpace=wrap;html=1;aspect=fixed;rounded=1;strokeWidth=3;" vertex="1" parent="1">
          <mxGeometry x="1275" y="415" width="115" height="115" as="geometry" />
        </mxCell>
        <mxCell id="R2Huf-4r1oj2iXr34D1d-27" value="AWS S3" style="image;sketch=0;aspect=fixed;html=1;points=[];align=center;fontSize=12;image=img/lib/mscae/WebHosting.svg;" vertex="1" parent="1">
          <mxGeometry x="1630" y="290" width="160" height="160" as="geometry" />
        </mxCell>
        <mxCell id="R2Huf-4r1oj2iXr34D1d-28" value="Real time Analytics" style="whiteSpace=wrap;html=1;aspect=fixed;" vertex="1" parent="1">
          <mxGeometry x="340" y="790" width="80" height="80" as="geometry" />
        </mxCell>
        <mxCell id="R2Huf-4r1oj2iXr34D1d-29" value="Monthly Analytics" style="whiteSpace=wrap;html=1;aspect=fixed;" vertex="1" parent="1">
          <mxGeometry x="510" y="790" width="80" height="80" as="geometry" />
        </mxCell>
        <mxCell id="R2Huf-4r1oj2iXr34D1d-30" value="Payment Calculator" style="whiteSpace=wrap;html=1;aspect=fixed;" vertex="1" parent="1">
          <mxGeometry x="670" y="780" width="80" height="80" as="geometry" />
        </mxCell>
        <mxCell id="R2Huf-4r1oj2iXr34D1d-43" style="edgeStyle=orthogonalEdgeStyle;rounded=0;orthogonalLoop=1;jettySize=auto;html=1;entryX=1;entryY=0.5;entryDx=0;entryDy=0;" edge="1" parent="1" source="R2Huf-4r1oj2iXr34D1d-32" target="R2Huf-4r1oj2iXr34D1d-33">
          <mxGeometry relative="1" as="geometry" />
        </mxCell>
        <mxCell id="R2Huf-4r1oj2iXr34D1d-51" style="edgeStyle=orthogonalEdgeStyle;rounded=0;orthogonalLoop=1;jettySize=auto;html=1;" edge="1" parent="1" source="R2Huf-4r1oj2iXr34D1d-32" target="R2Huf-4r1oj2iXr34D1d-27">
          <mxGeometry relative="1" as="geometry" />
        </mxCell>
        <mxCell id="R2Huf-4r1oj2iXr34D1d-32" value="CND" style="whiteSpace=wrap;html=1;aspect=fixed;rounded=1;strokeWidth=3;" vertex="1" parent="1">
          <mxGeometry x="1310" y="630" width="180" height="180" as="geometry" />
        </mxCell>
        <mxCell id="R2Huf-4r1oj2iXr34D1d-44" style="edgeStyle=orthogonalEdgeStyle;rounded=0;orthogonalLoop=1;jettySize=auto;html=1;exitX=0;exitY=0.25;exitDx=0;exitDy=0;entryX=1;entryY=0.75;entryDx=0;entryDy=0;" edge="1" parent="1" source="R2Huf-4r1oj2iXr34D1d-33" target="R2Huf-4r1oj2iXr34D1d-12">
          <mxGeometry relative="1" as="geometry" />
        </mxCell>
        <mxCell id="R2Huf-4r1oj2iXr34D1d-65" style="edgeStyle=orthogonalEdgeStyle;rounded=0;orthogonalLoop=1;jettySize=auto;html=1;" edge="1" parent="1" source="R2Huf-4r1oj2iXr34D1d-33" target="R2Huf-4r1oj2iXr34D1d-63">
          <mxGeometry relative="1" as="geometry" />
        </mxCell>
        <mxCell id="R2Huf-4r1oj2iXr34D1d-33" value="Regulator" style="rounded=1;whiteSpace=wrap;html=1;strokeWidth=3;" vertex="1" parent="1">
          <mxGeometry x="1070" y="850" width="120" height="60" as="geometry" />
        </mxCell>
        <mxCell id="R2Huf-4r1oj2iXr34D1d-59" value="cache&lt;br&gt;" style="shape=cylinder3;whiteSpace=wrap;html=1;boundedLbl=1;backgroundOutline=1;size=15;fillColor=#dae8fc;gradientColor=#7ea6e0;strokeColor=#6c8ebf;strokeWidth=4;" vertex="1" parent="1">
          <mxGeometry x="90" y="500" width="50" height="70" as="geometry" />
        </mxCell>
        <mxCell id="R2Huf-4r1oj2iXr34D1d-64" style="edgeStyle=orthogonalEdgeStyle;rounded=0;orthogonalLoop=1;jettySize=auto;html=1;exitX=1;exitY=0.5;exitDx=0;exitDy=0;" edge="1" parent="1" source="R2Huf-4r1oj2iXr34D1d-62" target="R2Huf-4r1oj2iXr34D1d-63">
          <mxGeometry relative="1" as="geometry" />
        </mxCell>
        <mxCell id="R2Huf-4r1oj2iXr34D1d-62" value="Top Recommendations&amp;nbsp;" style="whiteSpace=wrap;html=1;aspect=fixed;" vertex="1" parent="1">
          <mxGeometry x="300" y="970" width="120" height="120" as="geometry" />
        </mxCell>
        <mxCell id="R2Huf-4r1oj2iXr34D1d-66" style="edgeStyle=orthogonalEdgeStyle;rounded=0;orthogonalLoop=1;jettySize=auto;html=1;exitX=1;exitY=0.5;exitDx=0;exitDy=0;entryX=0.384;entryY=1.008;entryDx=0;entryDy=0;entryPerimeter=0;" edge="1" parent="1" source="R2Huf-4r1oj2iXr34D1d-63" target="R2Huf-4r1oj2iXr34D1d-32">
          <mxGeometry relative="1" as="geometry" />
        </mxCell>
        <mxCell id="R2Huf-4r1oj2iXr34D1d-70" style="edgeStyle=orthogonalEdgeStyle;rounded=0;orthogonalLoop=1;jettySize=auto;html=1;entryX=1;entryY=0.25;entryDx=0;entryDy=0;" edge="1" parent="1" source="R2Huf-4r1oj2iXr34D1d-63" target="R2Huf-4r1oj2iXr34D1d-67">
          <mxGeometry relative="1" as="geometry" />
        </mxCell>
        <mxCell id="R2Huf-4r1oj2iXr34D1d-63" value="ML search Algo" style="rhombus;whiteSpace=wrap;html=1;shadow=1;strokeWidth=3;fillColor=#f5f5f5;strokeColor=#666666;gradientColor=#b3b3b3;" vertex="1" parent="1">
          <mxGeometry x="780" y="970" width="120" height="120" as="geometry" />
        </mxCell>
        <mxCell id="R2Huf-4r1oj2iXr34D1d-69" style="edgeStyle=orthogonalEdgeStyle;rounded=0;orthogonalLoop=1;jettySize=auto;html=1;entryX=0.609;entryY=1.007;entryDx=0;entryDy=0;entryPerimeter=0;" edge="1" parent="1" source="R2Huf-4r1oj2iXr34D1d-67" target="R2Huf-4r1oj2iXr34D1d-32">
          <mxGeometry relative="1" as="geometry" />
        </mxCell>
        <mxCell id="R2Huf-4r1oj2iXr34D1d-67" value="Personalized Recommendation" style="whiteSpace=wrap;html=1;aspect=fixed;" vertex="1" parent="1">
          <mxGeometry x="310" y="1170" width="120" height="120" as="geometry" />
        </mxCell>
        <mxCell id="R2Huf-4r1oj2iXr34D1d-71" value="Top Recommendations&amp;nbsp;" style="whiteSpace=wrap;html=1;aspect=fixed;rounded=1;strokeWidth=3;" vertex="1" parent="1">
          <mxGeometry x="300" y="970" width="120" height="120" as="geometry" />
        </mxCell>
        <mxCell id="R2Huf-4r1oj2iXr34D1d-72" value="Personalized Recommendation" style="whiteSpace=wrap;html=1;aspect=fixed;rounded=1;strokeWidth=3;" vertex="1" parent="1">
          <mxGeometry x="310" y="1170" width="120" height="120" as="geometry" />
        </mxCell>
        <mxCell id="R2Huf-4r1oj2iXr34D1d-73" value="Real time Analytics" style="whiteSpace=wrap;html=1;aspect=fixed;rounded=1;strokeWidth=3;" vertex="1" parent="1">
          <mxGeometry x="340" y="790" width="80" height="80" as="geometry" />
        </mxCell>
        <mxCell id="R2Huf-4r1oj2iXr34D1d-74" value="Monthly Analytics" style="whiteSpace=wrap;html=1;aspect=fixed;rounded=1;strokeWidth=3;" vertex="1" parent="1">
          <mxGeometry x="510" y="790" width="80" height="80" as="geometry" />
        </mxCell>
        <mxCell id="R2Huf-4r1oj2iXr34D1d-75" value="Payment Calculator" style="whiteSpace=wrap;html=1;aspect=fixed;rounded=1;strokeWidth=3;" vertex="1" parent="1">
          <mxGeometry x="670" y="780" width="80" height="80" as="geometry" />
        </mxCell>
        <mxCell id="R2Huf-4r1oj2iXr34D1d-76" value="Stream" style="whiteSpace=wrap;html=1;aspect=fixed;rounded=1;strokeWidth=3;" vertex="1" parent="1">
          <mxGeometry x="500" y="550" width="80" height="80" as="geometry" />
        </mxCell>
      </root>
    </mxGraphModel>
  </diagram>
</mxfile>
